<?xml version="1.0" encoding="UTF-8"?> <svg xmlns="http://www.w3.org/2000/svg" width="65" height="65" viewBox="0 0 65 65" fill="none"><path d="M57.7442 12.4436C57.7167 12.1746 57.5957 11.9238 57.4025 11.7348C57.2092 11.5457 56.9557 11.4304 56.6862 11.4088C52.4791 10.8713 48.371 9.73234 44.4878 8.02674C40.4756 6.3574 36.739 4.09054 33.4051 1.30315C33.192 1.10815 32.9135 1 32.6247 1C32.3358 1 32.0573 1.10815 31.8442 1.30315C28.512 4.09447 24.7752 6.36347 20.7615 8.03252C16.878 9.73614 12.7699 10.8732 8.56309 11.4088C8.29446 11.4301 8.04173 11.5447 7.84856 11.7325C7.65539 11.9204 7.53392 12.1699 7.50512 12.4378C7.41262 13.3455 5.29669 34.5338 10.4767 44.8822C16.6684 57.2425 31.5089 64.1974 32.139 64.4922C32.2912 64.5626 32.4569 64.5991 32.6247 64.5991C32.7924 64.5991 32.9581 64.5626 33.1103 64.4922C33.7404 64.1974 48.5809 57.2425 54.7726 44.8822C59.9526 34.5338 57.8367 13.3455 57.7442 12.4436ZM52.7029 43.8416C47.4998 54.2478 35.2147 60.85 32.6247 62.1508C30.0347 60.8558 17.7726 54.2825 12.5464 43.8416C8.24512 35.268 9.37825 17.826 9.72512 13.6056C13.8367 12.9656 17.849 11.7998 21.6634 10.1369C25.593 8.48875 29.2805 6.31439 32.6247 3.67346C35.9746 6.32431 39.6701 8.50655 43.609 10.16C47.4234 11.823 51.4357 12.9888 55.5473 13.6288C55.8711 17.7971 57.0042 35.268 52.7029 43.8416Z" fill="white"></path><g clip-path="url(#clip0_1323_39599)"><path d="M32.9414 45.334C34.0093 45.334 34.875 44.4683 34.875 43.4004C34.875 42.3325 34.0093 41.4668 32.9414 41.4668C31.8735 41.4668 31.0078 42.3325 31.0078 43.4004C31.0078 44.4683 31.8735 45.334 32.9414 45.334Z" fill="#FF0066"></path><path d="M47.6854 27.074C43.834 22.9419 38.6188 20.6661 32.9998 20.666C27.3812 20.6661 22.166 22.9419 18.3146 27.074C17.8734 27.5475 17.8994 28.289 18.3729 28.7303C18.8464 29.1715 19.5879 29.1455 20.0291 28.672C23.4323 25.0207 28.0387 23.0098 33.0002 23.0098C37.9613 23.0098 42.5677 25.0207 45.9708 28.672C46.2016 28.9196 46.5146 29.0449 46.8283 29.0449C47.1145 29.0449 47.4013 28.9407 47.6271 28.7303C48.1005 28.289 48.1267 27.5475 47.6854 27.074Z" fill="#FF0066"></path><path d="M43.3825 31.9135C40.5357 29.0451 36.8484 27.4655 33 27.4656C29.1507 27.4656 25.4634 29.0453 22.6174 31.9136C22.1615 32.373 22.1644 33.115 22.6238 33.5709C23.0832 34.0267 23.8252 34.0238 24.2811 33.5644C26.6837 31.143 29.7801 29.8094 33 29.8093C36.219 29.8092 39.3154 31.1429 41.7189 33.5645C41.948 33.7953 42.2493 33.9109 42.5507 33.9109C42.8491 33.9109 43.1477 33.7976 43.3763 33.5707C43.8356 33.1148 43.8385 32.3729 43.3825 31.9135Z" fill="#FF0066"></path><path d="M38.6919 36.7671C37.1673 35.2566 34.9819 34.3184 32.9884 34.3184C32.9882 34.3184 32.9878 34.3184 32.9876 34.3184H32.9031C32.9028 34.3184 32.9026 34.3184 32.9022 34.3184C30.9087 34.3184 28.7232 35.2567 27.1986 36.7671C26.7389 37.2226 26.7354 37.9646 27.1909 38.4244C27.4201 38.6556 27.7217 38.7715 28.0234 38.7715C28.3215 38.7715 28.6197 38.6584 28.8482 38.4321C29.9335 37.3568 31.5247 36.6621 32.9024 36.6621C32.9025 36.6621 32.9028 36.6621 32.903 36.6621H32.9877C32.988 36.6621 32.988 36.6621 32.9883 36.6621C34.3657 36.6621 35.9571 37.3569 37.0423 38.4321C37.502 38.8876 38.2441 38.8843 38.6996 38.4244C39.1551 37.9646 39.1517 37.2226 38.6919 36.7671Z" fill="#FF0066"></path></g><defs><clipPath id="clip0_1323_39599"><rect width="30" height="30" fill="white" transform="translate(18 18)"></rect></clipPath></defs></svg> 