<?xml version="1.0" encoding="UTF-8"?> <svg xmlns="http://www.w3.org/2000/svg" width="20" height="20" viewBox="0 0 20 20" fill="none"><path d="M7.48729 9.8208L6.31392 6.03397L5.06688 9.8208H7.48729ZM5.76669 4.76196H6.95059L9.75512 13.3334H8.60805L7.82405 10.766H4.76696L3.93034 13.3334H2.85693L5.76669 4.76196Z" fill="white"></path><path d="M13.6751 12.3415C14.0294 12.3415 14.3206 12.3006 14.5486 12.2189C14.9555 12.0672 15.2887 11.7755 15.5483 11.3437C15.7553 10.9975 15.9044 10.554 15.9956 10.0133C16.0482 9.69049 16.0745 9.39096 16.0745 9.11478C16.0745 8.05283 15.8833 7.22817 15.501 6.64079C15.1221 6.05341 14.51 5.75973 13.6646 5.75973H11.8072V12.3415H13.6751ZM10.7549 4.76196H13.8856C14.9485 4.76196 15.7728 5.18013 16.3586 6.01646C16.8813 6.7711 17.1426 7.73775 17.1426 8.91639C17.1426 9.82663 16.9883 10.6493 16.6796 11.3845C16.1359 12.6838 15.2011 13.3334 13.8751 13.3334H10.7549V4.76196Z" fill="white"></path><path d="M13.2791 20H6.72089C6.16501 20 5.64163 19.7833 5.2475 19.39L0.610046 14.7533C0.216675 14.3584 0 13.8359 0 13.2791V6.72089C0 6.16409 0.216675 5.64163 0.610046 5.2475L5.2475 0.610809C5.64163 0.216675 6.16409 0 6.72089 0H13.2791C13.835 0 14.3584 0.216675 14.7525 0.610046L19.39 5.24673C19.7833 5.64163 20 6.16409 20 6.72089V13.2784C20 13.835 19.7833 14.3584 19.39 14.7525L14.7525 19.3892C14.3584 19.7833 13.8359 20 13.2791 20ZM6.72089 0.833282C6.3916 0.833282 6.06995 0.966644 5.83664 1.19919L1.19919 5.83664C0.963287 6.07254 0.833282 6.38672 0.833282 6.72089V13.2784C0.833282 13.6125 0.963287 13.9267 1.19919 14.1634L5.83664 18.8C6.06995 19.0334 6.3916 19.1667 6.72089 19.1667H13.2791C13.6084 19.1667 13.9301 19.0334 14.1634 18.8008L18.8008 14.1641C19.0367 13.9275 19.1667 13.6133 19.1667 13.2791V6.72089C19.1667 6.38672 19.0367 6.07254 18.8008 5.83588L14.1634 1.19919C13.9301 0.966644 13.6084 0.833282 13.2791 0.833282H6.72089Z" fill="white"></path><path d="M17.2224 3.25049L16.6147 2.64282L2.53343 16.7241L3.1411 17.3318L17.2224 3.25049Z" fill="white"></path></svg> 