<?xml version="1.0" encoding="UTF-8"?> <svg xmlns="http://www.w3.org/2000/svg" width="19" height="22" viewBox="0 0 19 22" fill="none"><path fill-rule="evenodd" clip-rule="evenodd" d="M14.7877 6.06326C14.9246 6.49512 14.998 6.95158 14.998 7.42366C14.998 7.43633 14.998 7.44899 14.9979 7.46164C14.998 7.46837 14.998 7.47511 14.998 7.48186V15.5136C14.998 16.2208 14.4177 16.7941 13.7019 16.7941H5.57143C4.85559 16.7941 4.27528 16.2208 4.27528 15.5136V7.48186C4.27528 7.47511 4.27533 7.46837 4.27544 7.46164C4.27533 7.44899 4.27528 7.43633 4.27528 7.42366C4.27528 6.95158 4.34866 6.49512 4.48558 6.06326C5.13179 4.02511 7.19336 2.53476 9.63665 2.53476C12.0799 2.53476 14.1415 4.02511 14.7877 6.06326ZM3.77615 7.46015C3.77607 7.448 3.77602 7.43584 3.77602 7.42366C3.77602 4.40291 6.44592 2.0338 9.63665 2.0338C12.8274 2.0338 15.4973 4.40292 15.4973 7.42366C15.4973 7.43584 15.4972 7.448 15.4971 7.46015C15.4972 7.46738 15.4973 7.47461 15.4973 7.48186V15.5136C15.4973 16.5048 14.6861 17.295 13.7019 17.295H5.57143C4.58723 17.295 3.77602 16.5048 3.77602 15.5136V7.48186C3.77602 7.47461 3.77607 7.46738 3.77615 7.46015Z" fill="white"></path><path fill-rule="evenodd" clip-rule="evenodd" d="M6.00746 16.7941V19.4131C6.00793 19.839 6.1794 20.2473 6.48425 20.5485C6.7891 20.8496 7.20243 21.019 7.63355 21.0195C8.06467 21.019 8.478 20.8496 8.78285 20.5485C9.0877 20.2473 9.25917 19.839 9.25964 19.4131V16.7941H8.83544V19.4131C8.83544 19.728 8.70881 20.03 8.48341 20.2527C8.25802 20.4753 7.95231 20.6004 7.63355 20.6004C7.31479 20.6004 7.00908 20.4753 6.78368 20.2527C6.55829 20.03 6.43166 19.728 6.43166 19.4131V16.7941H6.00746ZM10.0139 16.7941V19.4131C10.0143 19.839 10.1858 20.2473 10.4906 20.5485C10.7955 20.8496 11.2088 21.019 11.6399 21.0195C12.0711 21.019 12.4844 20.8496 12.7892 20.5485C13.0941 20.2473 13.2656 19.839 13.266 19.4131V16.7941H12.8418V19.4131C12.8418 19.728 12.7152 20.03 12.4898 20.2527C12.2644 20.4753 11.9587 20.6004 11.6399 20.6004C11.3212 20.6004 11.0155 20.4753 10.7901 20.2527C10.5647 20.03 10.438 19.728 10.438 19.4131V16.7941H10.0139Z" fill="white"></path><path d="M2.62609 15.374C2.19497 15.3735 1.78164 15.2041 1.47679 14.903C1.17194 14.6018 1.00047 14.1935 1 13.7676V8.82049C1 8.39446 1.17132 7.98587 1.47627 7.68462C1.78122 7.38337 2.19482 7.21413 2.62609 7.21413C3.05735 7.21413 3.47095 7.38337 3.7759 7.68462C4.08085 7.98587 4.25217 8.39446 4.25217 8.82049V13.7676C4.25171 14.1935 4.08024 14.6018 3.77539 14.903C3.47054 15.2041 3.05721 15.3735 2.62609 15.374ZM2.62609 7.63318C2.30742 7.63349 2.0019 7.75868 1.77657 7.98128C1.55124 8.20387 1.42451 8.50569 1.4242 8.82049V13.7676C1.4242 14.0825 1.55082 14.3845 1.77622 14.6071C2.00162 14.8298 2.30733 14.9549 2.62609 14.9549C2.94485 14.9549 3.25055 14.8298 3.47595 14.6071C3.70135 14.3845 3.82798 14.0825 3.82798 13.7676V8.82049C3.82767 8.50569 3.70094 8.20387 3.47561 7.98128C3.25028 7.75868 2.94475 7.63349 2.62609 7.63318Z" fill="white"></path><path d="M16.6479 15.374C16.2168 15.3735 15.8035 15.2041 15.4986 14.903C15.1938 14.6018 15.0223 14.1935 15.0218 13.7676V8.82049C15.0218 8.39446 15.1931 7.98587 15.4981 7.68462C15.803 7.38337 16.2166 7.21413 16.6479 7.21413C17.0792 7.21413 17.4928 7.38337 17.7977 7.68462C18.1027 7.98587 18.274 8.39446 18.274 8.82049V13.7676C18.2735 14.1935 18.1021 14.6018 17.7972 14.903C17.4924 15.2041 17.079 15.3735 16.6479 15.374ZM16.6479 7.63318C16.3292 7.63349 16.0237 7.75868 15.7984 7.98128C15.5731 8.20387 15.4463 8.50569 15.446 8.82049V13.7676C15.446 14.0825 15.5726 14.3845 15.798 14.6071C16.0234 14.8298 16.3291 14.9549 16.6479 14.9549C16.9667 14.9549 17.2724 14.8298 17.4978 14.6071C17.7232 14.3845 17.8498 14.0825 17.8498 13.7676V8.82049C17.8495 8.50569 17.7228 8.20387 17.4974 7.98128C17.2721 7.75868 16.9666 7.63349 16.6479 7.63318Z" fill="white"></path><path d="M4.03919 7.62736H15.2333H4.03919Z" fill="white"></path><path d="M15.2333 7.41784H4.03919V7.83689H15.2333V7.41784Z" fill="white"></path><path d="M7.16174 5.27021C7.2919 5.27021 7.39741 5.16598 7.39741 5.03741C7.39741 4.90883 7.2919 4.8046 7.16174 4.8046C7.03159 4.8046 6.92608 4.90883 6.92608 5.03741C6.92608 5.16598 7.03159 5.27021 7.16174 5.27021Z" fill="white"></path><path d="M7.16174 5.47974C7.07318 5.47974 6.98661 5.4538 6.91298 5.40519C6.83935 5.35659 6.78196 5.28751 6.74806 5.20668C6.71417 5.12586 6.70531 5.03692 6.72258 4.95112C6.73986 4.86531 6.78251 4.7865 6.84513 4.72464C6.90775 4.66277 6.98753 4.62065 7.07439 4.60358C7.16125 4.58651 7.25128 4.59527 7.3331 4.62875C7.41491 4.66223 7.48484 4.71892 7.53405 4.79166C7.58325 4.86441 7.60951 4.94993 7.60951 5.03741C7.60935 5.15468 7.56213 5.26709 7.47819 5.35001C7.39425 5.43293 7.28045 5.47958 7.16174 5.47974ZM7.16174 5.01413C7.15708 5.01413 7.15253 5.01549 7.14865 5.01805C7.14478 5.02061 7.14176 5.02425 7.13997 5.0285C7.13819 5.03275 7.13772 5.03744 7.13863 5.04195C7.13954 5.04647 7.14178 5.05062 7.14508 5.05387C7.14838 5.05713 7.15258 5.05934 7.15715 5.06024C7.16172 5.06114 7.16646 5.06068 7.17076 5.05892C7.17507 5.05716 7.17875 5.05417 7.18134 5.05034C7.18393 5.04651 7.18531 5.04201 7.18531 5.03741C7.18531 5.03124 7.18283 5.02531 7.17841 5.02095C7.17399 5.01658 7.16799 5.01413 7.16174 5.01413Z" fill="white"></path><path d="M12.1107 5.27021C12.2409 5.27021 12.3464 5.16598 12.3464 5.03741C12.3464 4.90883 12.2409 4.8046 12.1107 4.8046C11.9806 4.8046 11.875 4.90883 11.875 5.03741C11.875 5.16598 11.9806 5.27021 12.1107 5.27021Z" fill="white"></path><path d="M12.1107 5.47974C12.0221 5.47974 11.9356 5.4538 11.8619 5.40519C11.7883 5.35659 11.7309 5.28751 11.697 5.20668C11.6631 5.12586 11.6543 5.03692 11.6715 4.95112C11.6888 4.86531 11.7315 4.7865 11.7941 4.72464C11.8567 4.66277 11.9365 4.62065 12.0234 4.60358C12.1102 4.58651 12.2002 4.59527 12.2821 4.62875C12.3639 4.66223 12.4338 4.71892 12.483 4.79166C12.5322 4.86441 12.5585 4.94993 12.5585 5.03741C12.5583 5.15468 12.5111 5.26709 12.4272 5.35001C12.3432 5.43293 12.2294 5.47958 12.1107 5.47974ZM12.1107 5.01413C12.106 5.01413 12.1015 5.01549 12.0976 5.01805C12.0937 5.02061 12.0907 5.02425 12.0889 5.0285C12.0872 5.03275 12.0867 5.03744 12.0876 5.04195C12.0885 5.04647 12.0907 5.05062 12.094 5.05387C12.0973 5.05713 12.1015 5.05934 12.1061 5.06024C12.1107 5.06114 12.1154 5.06068 12.1197 5.05892C12.124 5.05716 12.1277 5.05417 12.1303 5.05034C12.1329 5.04651 12.1343 5.04201 12.1343 5.03741C12.1343 5.03124 12.1318 5.02531 12.1274 5.02095C12.123 5.01658 12.117 5.01413 12.1107 5.01413Z" fill="white"></path><path fill-rule="evenodd" clip-rule="evenodd" d="M12.6335 3.36957L13.484 1.85439C13.5604 1.71819 13.5791 1.5576 13.536 1.40781C13.4928 1.25802 13.3912 1.13125 13.2536 1.05529C13.1852 1.01757 13.1099 0.993574 13.0321 0.984662C12.9543 0.97575 12.8755 0.982101 12.8002 1.00335C12.7249 1.0246 12.6545 1.06033 12.5932 1.1085C12.5319 1.15666 12.4808 1.21631 12.4429 1.28402L11.5594 2.85875C11.6945 2.90611 11.8269 2.95832 11.9565 3.01513L12.8141 1.48714C12.8289 1.4608 12.8506 1.43887 12.8769 1.42362C12.9033 1.40837 12.9332 1.40036 12.9637 1.40042C12.9925 1.40066 13.0209 1.40785 13.0462 1.42137C13.0857 1.4433 13.1149 1.47975 13.1274 1.5228C13.1398 1.56584 13.1346 1.61201 13.1128 1.65127L12.2651 3.16189C12.3911 3.22669 12.514 3.29599 12.6335 3.36957ZM6.6397 3.36897C6.75875 3.29567 6.88121 3.22662 7.0068 3.16205L6.1595 1.65418C6.14825 1.63461 6.14104 1.61303 6.1383 1.59069C6.13555 1.56834 6.13733 1.54569 6.14353 1.52403C6.14972 1.50237 6.16021 1.48214 6.17438 1.46452C6.18855 1.4469 6.20612 1.43223 6.22607 1.42137C6.26572 1.39987 6.31237 1.39471 6.35585 1.40703C6.39933 1.41935 6.43612 1.44814 6.4582 1.48714L7.31614 3.01493C7.44622 2.9579 7.57922 2.90552 7.71487 2.85803L6.83173 1.28402C6.79376 1.21629 6.74262 1.15663 6.68126 1.10846C6.6199 1.06029 6.54952 1.02456 6.47415 1.00331C6.39879 0.982057 6.31992 0.975711 6.24206 0.984631C6.16421 0.993551 6.0889 1.01756 6.02046 1.05529C5.88252 1.13095 5.7806 1.25759 5.73708 1.40741C5.69356 1.55723 5.71199 1.71798 5.78833 1.85439L6.6397 3.36897Z" fill="white"></path><path d="M10.226 16.7941V19.4131C10.226 19.7836 10.3749 20.1389 10.6401 20.4008C10.9053 20.6628 11.2649 20.8099 11.6399 20.8099C12.015 20.8099 12.3746 20.6628 12.6398 20.4008C12.905 20.1389 13.0539 19.7836 13.0539 19.4131V16.7941M9.04754 16.7941V19.4131C9.04754 19.7836 8.89856 20.1389 8.63339 20.4008C8.36821 20.6628 8.00856 20.8099 7.63355 20.8099C7.25853 20.8099 6.89888 20.6628 6.63371 20.4008C6.36853 20.1389 6.21956 19.7836 6.21956 19.4131V16.7941M4.03918 7.62736H15.2333M14.7877 6.06326C14.9246 6.49512 14.998 6.95158 14.998 7.42366C14.998 7.43633 14.998 7.44899 14.9979 7.46164C14.998 7.46837 14.998 7.47511 14.998 7.48186V15.5136C14.998 16.2208 14.4177 16.7941 13.7019 16.7941H5.57143C4.85559 16.7941 4.27528 16.2208 4.27528 15.5136V7.48186C4.27528 7.47511 4.27533 7.46837 4.27544 7.46164C4.27533 7.44899 4.27528 7.43633 4.27528 7.42366C4.27528 6.95158 4.34866 6.49512 4.48558 6.06326C5.13179 4.02511 7.19336 2.53476 9.63665 2.53476C12.0799 2.53476 14.1415 4.02511 14.7877 6.06326ZM3.77602 7.42366C3.77602 7.43584 3.77607 7.448 3.77615 7.46015C3.77607 7.46738 3.77602 7.47461 3.77602 7.48186V15.5136C3.77602 16.5048 4.58723 17.295 5.57143 17.295H13.7019C14.6861 17.295 15.4973 16.5048 15.4973 15.5136V7.48186C15.4973 7.47461 15.4972 7.46738 15.4971 7.46015C15.4972 7.448 15.4973 7.43584 15.4973 7.42366C15.4973 4.40292 12.8274 2.0338 9.63665 2.0338C6.44592 2.0338 3.77602 4.40291 3.77602 7.42366ZM6.00746 19.4131V16.7941H6.43166V19.4131C6.43166 19.728 6.55829 20.03 6.78368 20.2527C7.00908 20.4753 7.31479 20.6004 7.63355 20.6004C7.95231 20.6004 8.25802 20.4753 8.48341 20.2527C8.70881 20.03 8.83544 19.728 8.83544 19.4131V16.7941H9.25964V19.4131C9.25917 19.839 9.0877 20.2473 8.78285 20.5485C8.478 20.8496 8.06467 21.019 7.63355 21.0195C7.20243 21.019 6.7891 20.8496 6.48425 20.5485C6.1794 20.2473 6.00793 19.839 6.00746 19.4131ZM10.0139 19.4131V16.7941H10.438V19.4131C10.438 19.728 10.5647 20.03 10.7901 20.2527C11.0155 20.4753 11.3212 20.6004 11.6399 20.6004C11.9587 20.6004 12.2644 20.4753 12.4898 20.2527C12.7152 20.03 12.8418 19.728 12.8418 19.4131V16.7941H13.266V19.4131C13.2656 19.839 13.0941 20.2473 12.7892 20.5485C12.4844 20.8496 12.0711 21.019 11.6399 21.0195C11.2088 21.019 10.7955 20.8496 10.4906 20.5485C10.1858 20.2473 10.0143 19.839 10.0139 19.4131ZM2.62609 15.374C2.19497 15.3735 1.78164 15.2041 1.47679 14.903C1.17194 14.6018 1.00047 14.1935 1 13.7676V8.82049C1 8.39446 1.17132 7.98587 1.47627 7.68462C1.78122 7.38337 2.19482 7.21413 2.62609 7.21413C3.05735 7.21413 3.47095 7.38337 3.7759 7.68462C4.08085 7.98587 4.25217 8.39446 4.25217 8.82049V13.7676C4.25171 14.1935 4.08024 14.6018 3.77539 14.903C3.47054 15.2041 3.05721 15.3735 2.62609 15.374ZM2.62609 7.63318C2.30742 7.63349 2.0019 7.75868 1.77657 7.98128C1.55124 8.20387 1.42451 8.50569 1.4242 8.82049V13.7676C1.4242 14.0825 1.55082 14.3845 1.77622 14.6071C2.00162 14.8298 2.30733 14.9549 2.62609 14.9549C2.94485 14.9549 3.25055 14.8298 3.47595 14.6071C3.70135 14.3845 3.82798 14.0825 3.82798 13.7676V8.82049C3.82767 8.50569 3.70094 8.20387 3.47561 7.98128C3.25028 7.75868 2.94475 7.63349 2.62609 7.63318ZM16.6479 15.374C16.2168 15.3735 15.8035 15.2041 15.4986 14.903C15.1938 14.6018 15.0223 14.1935 15.0218 13.7676V8.82049C15.0218 8.39446 15.1931 7.98587 15.4981 7.68462C15.803 7.38337 16.2166 7.21413 16.6479 7.21413C17.0792 7.21413 17.4928 7.38337 17.7977 7.68462C18.1027 7.98587 18.274 8.39446 18.274 8.82049V13.7676C18.2735 14.1935 18.1021 14.6018 17.7972 14.903C17.4924 15.2041 17.079 15.3735 16.6479 15.374ZM16.6479 7.63318C16.3292 7.63349 16.0237 7.75868 15.7984 7.98128C15.5731 8.20387 15.4463 8.50569 15.446 8.82049V13.7676C15.446 14.0825 15.5726 14.3845 15.798 14.6071C16.0234 14.8298 16.3291 14.9549 16.6479 14.9549C16.9667 14.9549 17.2724 14.8298 17.4978 14.6071C17.7232 14.3845 17.8498 14.0825 17.8498 13.7676V8.82049C17.8495 8.50569 17.7228 8.20387 17.4974 7.98128C17.2721 7.75868 16.9666 7.63349 16.6479 7.63318ZM4.03918 7.41784H15.2333V7.83689H4.03918V7.41784ZM7.39741 5.03741C7.39741 5.16598 7.2919 5.27021 7.16174 5.27021C7.03159 5.27021 6.92608 5.16598 6.92608 5.03741C6.92608 4.90883 7.03159 4.8046 7.16174 4.8046C7.2919 4.8046 7.39741 4.90883 7.39741 5.03741ZM7.16174 5.47974C7.07318 5.47974 6.98661 5.4538 6.91298 5.40519C6.83935 5.35659 6.78196 5.28751 6.74807 5.20668C6.71417 5.12586 6.70531 5.03692 6.72258 4.95112C6.73986 4.86531 6.78251 4.7865 6.84513 4.72464C6.90775 4.66277 6.98753 4.62065 7.07439 4.60358C7.16125 4.58651 7.25128 4.59527 7.3331 4.62875C7.41491 4.66223 7.48484 4.71892 7.53405 4.79166C7.58325 4.86441 7.60951 4.94993 7.60951 5.03741C7.60935 5.15468 7.56213 5.26709 7.47819 5.35001C7.39425 5.43293 7.28045 5.47958 7.16174 5.47974ZM7.16174 5.01413C7.15708 5.01413 7.15253 5.01549 7.14865 5.01805C7.14478 5.02061 7.14176 5.02425 7.13997 5.0285C7.13819 5.03275 7.13772 5.03744 7.13863 5.04195C7.13954 5.04647 7.14178 5.05062 7.14508 5.05387C7.14838 5.05713 7.15258 5.05934 7.15715 5.06024C7.16172 5.06114 7.16646 5.06068 7.17076 5.05892C7.17507 5.05716 7.17875 5.05417 7.18134 5.05034C7.18393 5.04652 7.18531 5.04201 7.18531 5.03741C7.18531 5.03124 7.18283 5.02531 7.17841 5.02095C7.17399 5.01658 7.16799 5.01413 7.16174 5.01413ZM12.3464 5.03741C12.3464 5.16598 12.2409 5.27021 12.1107 5.27021C11.9806 5.27021 11.875 5.16598 11.875 5.03741C11.875 4.90883 11.9806 4.8046 12.1107 4.8046C12.2409 4.8046 12.3464 4.90883 12.3464 5.03741ZM12.1107 5.47974C12.0221 5.47974 11.9356 5.4538 11.8619 5.40519C11.7883 5.35659 11.7309 5.28751 11.697 5.20668C11.6631 5.12586 11.6543 5.03692 11.6715 4.95112C11.6888 4.86531 11.7315 4.7865 11.7941 4.72464C11.8567 4.66277 11.9365 4.62065 12.0234 4.60358C12.1102 4.58651 12.2002 4.59527 12.2821 4.62875C12.3639 4.66223 12.4338 4.71892 12.483 4.79166C12.5322 4.86441 12.5585 4.94993 12.5585 5.03741C12.5583 5.15468 12.5111 5.26709 12.4272 5.35001C12.3432 5.43293 12.2294 5.47958 12.1107 5.47974ZM12.1107 5.01413C12.106 5.01413 12.1015 5.01549 12.0976 5.01805C12.0937 5.02061 12.0907 5.02425 12.0889 5.0285C12.0872 5.03275 12.0867 5.03744 12.0876 5.04195C12.0885 5.04647 12.0907 5.05062 12.094 5.05387C12.0973 5.05713 12.1015 5.05934 12.1061 5.06024C12.1107 5.06114 12.1154 5.06068 12.1197 5.05892C12.124 5.05716 12.1277 5.05417 12.1303 5.05034C12.1329 5.04652 12.1343 5.04201 12.1343 5.03741C12.1343 5.03124 12.1318 5.02531 12.1274 5.02095C12.123 5.01658 12.117 5.01413 12.1107 5.01413ZM13.484 1.85439L12.6335 3.36957C12.514 3.29599 12.3911 3.22669 12.2651 3.16189L13.1128 1.65127C13.1346 1.61201 13.1398 1.56584 13.1274 1.5228C13.1149 1.47975 13.0857 1.4433 13.0462 1.42137C13.0209 1.40785 12.9925 1.40066 12.9637 1.40042C12.9332 1.40036 12.9033 1.40837 12.8769 1.42362C12.8506 1.43887 12.8289 1.4608 12.8141 1.48714L11.9565 3.01513C11.8269 2.95832 11.6945 2.90611 11.5594 2.85875L12.4429 1.28402C12.4808 1.21631 12.5319 1.15666 12.5932 1.1085C12.6545 1.06033 12.7249 1.0246 12.8002 1.00335C12.8755 0.982101 12.9543 0.97575 13.0321 0.984662C13.1099 0.993574 13.1852 1.01757 13.2536 1.05529C13.3912 1.13125 13.4928 1.25802 13.536 1.40781C13.5791 1.5576 13.5604 1.71819 13.484 1.85439ZM6.6397 3.36897C6.75875 3.29567 6.88121 3.22662 7.0068 3.16205L6.1595 1.65418C6.14825 1.63461 6.14104 1.61303 6.1383 1.59069C6.13555 1.56834 6.13733 1.54569 6.14353 1.52403C6.14972 1.50237 6.16021 1.48214 6.17438 1.46452C6.18855 1.4469 6.20612 1.43223 6.22607 1.42137C6.26572 1.39987 6.31237 1.39471 6.35585 1.40703C6.39933 1.41935 6.43612 1.44814 6.4582 1.48714L7.31614 3.01492C7.44622 2.9579 7.57922 2.90552 7.71487 2.85803L6.83173 1.28402C6.79376 1.21629 6.74262 1.15663 6.68126 1.10846C6.6199 1.06029 6.54952 1.02456 6.47415 1.00331C6.39879 0.982057 6.31992 0.975711 6.24206 0.984631C6.16421 0.993551 6.0889 1.01756 6.02046 1.05529C5.88252 1.13095 5.7806 1.25759 5.73708 1.40741C5.69356 1.55723 5.71199 1.71798 5.78833 1.85439L6.6397 3.36897Z" stroke="white" stroke-width="0.2"></path></svg> 