<?xml version="1.0" encoding="UTF-8"?> <svg xmlns="http://www.w3.org/2000/svg" width="18" height="22" viewBox="0 0 18 22" fill="none"><path d="M14.6508 11.5694C14.6415 9.92997 15.3489 8.69444 16.7771 7.78343C15.9784 6.58151 14.7699 5.92051 13.1767 5.79312C11.668 5.66812 10.0179 6.71612 9.41372 6.71612C8.77498 6.71612 7.31435 5.83638 6.1653 5.83638C3.79393 5.87482 1.27393 7.82187 1.27393 11.7833C1.27393 12.9539 1.47771 14.163 1.88529 15.4082C2.42971 17.0475 4.39392 21.0644 6.44234 20.9992C7.5135 20.9727 8.2714 20.2014 9.6655 20.2014C11.0179 20.2014 11.7186 20.9992 12.9135 20.9992C14.9805 20.9679 16.7565 17.3166 17.2739 15.6726C14.5021 14.3 14.6508 11.6535 14.6508 11.5694ZM12.2449 4.23785C13.4057 2.79079 13.3004 1.47352 13.2659 1C12.2402 1.06248 11.0546 1.73314 10.3796 2.55762C9.63561 3.44223 9.19856 4.53594 9.29203 5.76908C10.4002 5.85799 11.412 5.25946 12.2449 4.23785Z" stroke="white" stroke-width="0.7"></path></svg> 