<?xml version="1.0" encoding="UTF-8"?> <svg xmlns="http://www.w3.org/2000/svg" width="63" height="62" viewBox="0 0 63 62" fill="none"><g clip-path="url(#clip0_1053_46684)"><path d="M28.4 8.26662H34.6C35.1707 8.26662 35.6334 7.80398 35.6334 7.23328C35.6334 6.66259 35.1707 6.19995 34.6 6.19995H28.4C27.8293 6.19995 27.3667 6.66259 27.3667 7.23328C27.3667 7.80398 27.8293 8.26662 28.4 8.26662Z" fill="white"></path><path d="M45.9664 8.26662H57.3331C57.9038 8.26662 58.3664 7.80398 58.3664 7.23328C58.3664 6.66259 57.9038 6.19995 57.3331 6.19995H45.9664C45.3957 6.19995 44.9331 6.66259 44.9331 7.23328C44.9331 7.80398 45.3957 8.26662 45.9664 8.26662Z" fill="white"></path><path d="M57.3333 2.06665H5.66667C2.81461 2.07007 0.503416 4.38126 0.5 7.23332V54.7667C0.503416 57.6187 2.81461 59.9299 5.66667 59.9333H57.3333C60.1854 59.9299 62.4966 57.6187 62.5 54.7667V7.23332C62.4966 4.38126 60.1854 2.07007 57.3333 2.06665ZM5.66667 4.13332H57.3333C59.0454 4.13332 60.4333 5.52123 60.4333 7.23332V10.3333H2.56667V7.23332C2.56667 5.52123 3.95458 4.13332 5.66667 4.13332ZM57.3333 57.8667H5.66667C3.95458 57.8667 2.56667 56.4787 2.56667 54.7667V12.4H60.4333V54.7667C60.4333 56.4787 59.0454 57.8667 57.3333 57.8667Z" fill="white"></path><path d="M5.66663 8.26662C6.23733 8.26662 6.69997 7.80398 6.69997 7.23328C6.69997 6.66259 6.23733 6.19995 5.66663 6.19995C5.09594 6.19995 4.6333 6.66259 4.6333 7.23328C4.6333 7.80398 5.09594 8.26662 5.66663 8.26662Z" fill="white"></path><path d="M9.79993 8.26662C10.3706 8.26662 10.8333 7.80398 10.8333 7.23328C10.8333 6.66259 10.3706 6.19995 9.79993 6.19995C9.22924 6.19995 8.7666 6.66259 8.7666 7.23328C8.7666 7.80398 9.22924 8.26662 9.79993 8.26662Z" fill="white"></path><path d="M13.9332 8.26662C14.5039 8.26662 14.9666 7.80398 14.9666 7.23328C14.9666 6.66259 14.5039 6.19995 13.9332 6.19995C13.3625 6.19995 12.8999 6.66259 12.8999 7.23328C12.8999 7.80398 13.3625 8.26662 13.9332 8.26662Z" fill="white"></path><path d="M39.7668 37.1999C37.1785 37.2035 34.7892 38.5898 33.5017 40.8352C32.2627 40.1216 30.7376 40.1216 29.4986 40.8352C27.5924 37.5113 23.4424 36.2245 19.9902 37.8869C16.5379 39.5493 14.9562 43.5961 16.3662 47.1589C17.7762 50.7217 21.6989 52.5901 25.3538 51.4398C29.0087 50.2894 31.1542 46.5111 30.2695 42.783C31.0121 42.2777 31.9882 42.2777 32.7309 42.783C32.0285 45.7802 33.3002 48.8936 35.9 50.5421C38.4998 52.1905 41.8581 52.0129 44.2696 50.0994C46.681 48.1859 47.6172 44.9558 46.6027 42.0494C45.5881 39.143 42.8452 37.1971 39.7668 37.1999ZM23.2335 49.5999C20.38 49.5999 18.0668 47.2867 18.0668 44.4333C18.0668 41.5798 20.38 39.2666 23.2335 39.2666C26.087 39.2666 28.4002 41.5798 28.4002 44.4333C28.3967 47.2853 26.0855 49.5965 23.2335 49.5999ZM39.7668 49.5999C36.9133 49.5999 34.6002 47.2867 34.6002 44.4333C34.6002 41.5798 36.9133 39.2666 39.7668 39.2666C42.6203 39.2666 44.9335 41.5798 44.9335 44.4333C44.9301 47.2853 42.6189 49.5965 39.7668 49.5999Z" fill="#FF0066"></path><path d="M43.5765 28.769L40.7348 19.5299C40.3891 18.4093 39.5845 17.4878 38.5208 16.9942C37.457 16.5005 36.2338 16.481 35.1548 16.9404L32.3049 18.1639C31.7909 18.3912 31.2049 18.3912 30.6908 18.1639L27.844 16.9363C26.765 16.4768 25.5419 16.4964 24.4781 16.9901C23.4144 17.4837 22.6098 18.4052 22.264 19.5258L19.4223 28.769C16.5204 29.6456 13.8891 31.2457 11.7757 33.419C11.5077 33.7248 11.444 34.1595 11.613 34.5294C11.782 34.8993 12.1523 35.1357 12.5589 35.1333H50.4409C50.8461 35.1333 51.2138 34.8966 51.3816 34.5279C51.5494 34.1592 51.4862 33.7264 51.2201 33.421C49.1078 31.2475 46.4775 29.6466 43.5765 28.769ZM24.2418 20.1324C24.4156 19.5727 24.8179 19.1125 25.3494 18.8657C25.8809 18.6188 26.4921 18.6082 27.0318 18.8366L29.8652 20.0518C30.9045 20.5074 32.0871 20.5074 33.1264 20.0518L35.965 18.8324C36.5049 18.6045 37.116 18.6154 37.6474 18.8624C38.1789 19.1094 38.5812 19.5696 38.755 20.1293L41.1905 28.0508C34.8252 26.4663 28.1685 26.4663 21.8031 28.0508L24.2418 20.1324ZM15.2766 33.0666C18.9098 30.507 24.931 28.9333 31.4999 28.9333C35.1816 28.9065 38.8455 29.4439 42.3644 30.5267C42.4124 30.5452 42.4618 30.5597 42.5122 30.5701C44.3619 31.1431 46.1176 31.9842 47.7233 33.0666H15.2766Z" fill="#FF0066"></path></g><defs><clipPath id="clip0_1053_46684"><rect width="62" height="62" fill="white" transform="translate(0.5)"></rect></clipPath></defs></svg> 