<?xml version="1.0" encoding="UTF-8"?> <svg xmlns="http://www.w3.org/2000/svg" width="21" height="21" viewBox="0 0 21 21" fill="none"><g clip-path="url(#clip0_1323_24407)"><path d="M18.8125 0.875H2.18749C0.98175 0.875 0 1.85675 0 3.06253V17.9375C0 19.1433 0.98175 20.125 2.18749 20.125H18.8125C20.0182 20.125 21 19.1433 21 17.9375V3.06253C21 1.85675 20.0182 0.875 18.8125 0.875ZM20.125 17.9375C20.125 18.6611 19.5362 19.25 18.8125 19.25H2.18749C1.46385 19.25 0.874986 18.6611 0.874986 17.9375V5.25001H20.125V17.9375H20.125ZM20.125 4.37503H0.874986V3.06253C0.874986 2.33889 1.46385 1.75003 2.18749 1.75003H18.8125C19.5361 1.75003 20.125 2.33889 20.125 3.06253V4.37503H20.125Z" fill="white"></path><path d="M2.18751 3.50003C2.42915 3.50003 2.62503 3.30415 2.62503 3.06251C2.62503 2.82088 2.42915 2.625 2.18751 2.625C1.94588 2.625 1.75 2.82088 1.75 3.06251C1.75 3.30415 1.94588 3.50003 2.18751 3.50003Z" fill="white"></path><path d="M3.93751 3.50003C4.17915 3.50003 4.37503 3.30415 4.37503 3.06251C4.37503 2.82088 4.17915 2.625 3.93751 2.625C3.69588 2.625 3.5 2.82088 3.5 3.06251C3.5 3.30415 3.69588 3.50003 3.93751 3.50003Z" fill="white"></path><path d="M5.68751 3.50003C5.92915 3.50003 6.12503 3.30415 6.12503 3.06251C6.12503 2.82088 5.92915 2.625 5.68751 2.625C5.44588 2.625 5.25 2.82088 5.25 3.06251C5.25 3.30415 5.44588 3.50003 5.68751 3.50003Z" fill="white"></path></g><defs><clipPath id="clip0_1323_24407"><rect width="21" height="21" fill="white"></rect></clipPath></defs></svg> 