<?xml version="1.0" encoding="UTF-8"?> <svg xmlns="http://www.w3.org/2000/svg" width="20" height="20" viewBox="0 0 20 20" fill="none"><path d="M10 0C8.02219 0 6.08879 0.58649 4.4443 1.6853C2.79981 2.78412 1.51809 4.3459 0.761209 6.17317C0.00433284 8.00043 -0.193701 10.0111 0.192152 11.9509C0.578004 13.8907 1.53041 15.6725 2.92894 17.0711C4.32746 18.4696 6.10929 19.422 8.0491 19.8079C9.98891 20.1937 11.9996 19.9957 13.8268 19.2388C15.6541 18.4819 17.2159 17.2002 18.3147 15.5557C19.4135 13.9112 20 11.9778 20 10C20 8.68678 19.7413 7.38642 19.2388 6.17317C18.7363 4.95991 17.9997 3.85752 17.0711 2.92893C16.1425 2.00035 15.0401 1.26375 13.8268 0.761205C12.6136 0.258658 11.3132 0 10 0ZM10 0.83C11.687 0.83313 13.3403 1.30154 14.7783 2.1837C16.2162 3.06586 17.3829 4.32756 18.15 5.83H10H9.92C9.20117 5.84363 8.49813 6.04333 7.87947 6.40962C7.2608 6.77591 6.74763 7.29629 6.39 7.92C6.11 8.41336 5.92991 8.95704 5.86 9.52L2.86 4.37C3.7061 3.27968 4.78788 2.39487 6.02436 1.78183C7.26083 1.16879 8.61996 0.84339 10 0.83ZM12.89 11.67C12.5595 12.2389 12.0678 12.6971 11.4771 12.9869C10.8864 13.2766 10.2231 13.3849 9.57091 13.298C8.91873 13.2111 8.3069 12.9329 7.81265 12.4986C7.3184 12.0644 6.96388 11.4934 6.79383 10.8578C6.62379 10.2222 6.64583 9.55048 6.85719 8.92741C7.06855 8.30433 7.45975 7.75784 7.98141 7.35689C8.50308 6.95594 9.13183 6.71851 9.7883 6.67457C10.4448 6.63063 11.0996 6.78215 11.67 7.11C12.434 7.5552 12.991 8.28441 13.2196 9.13863C13.4481 9.99284 13.3296 10.9028 12.89 11.67ZM0.830004 10C0.82901 8.24684 1.33613 6.53096 2.29 5.06L6.39 12.06L6.45 12.11C6.80412 12.7193 7.31073 13.2259 7.92 13.58C8.48722 13.9114 9.12575 14.1016 9.78184 14.1347C10.4379 14.1677 11.0923 14.0427 11.69 13.77L8.8 19C8.79669 19.0366 8.79669 19.0734 8.8 19.11C6.59173 18.8185 4.56503 17.7332 3.09839 16.0568C1.63174 14.3804 0.825425 12.2274 0.830004 10ZM10 19.17H9.65L13.65 12.1C14.1496 11.2145 14.3085 10.1769 14.0967 9.18242C13.8849 8.18797 13.3171 7.30515 12.5 6.7H18.56C18.9684 7.75203 19.1754 8.87148 19.17 10C19.1647 12.4304 18.1969 14.7598 16.4783 16.4783C14.7598 18.1969 12.4304 19.1647 10 19.17Z" fill="white"></path></svg> 