<svg width="16" height="16" viewBox="0 0 16 16" fill="none" xmlns="http://www.w3.org/2000/svg">
<path d="M0.929124 0.928786C1.31965 0.538262 1.95281 0.538262 2.34334 0.928786L15.0713 13.6567C15.4618 14.0472 15.4618 14.6804 15.0713 15.0709C14.6807 15.4614 14.0476 15.4614 13.657 15.0709L0.929124 2.343C0.5386 1.95248 0.538599 1.31931 0.929124 0.928786Z" fill="#FF0066"/>
<path d="M0.929275 15.0714C0.53875 14.6808 0.53875 14.0477 0.929275 13.6572L13.6572 0.929229C14.0477 0.538705 14.6809 0.538705 15.0714 0.929229C15.4619 1.31975 15.4619 1.95292 15.0714 2.34344L2.34349 15.0714C1.95296 15.4619 1.3198 15.4619 0.929275 15.0714Z" fill="#FF0066"/>
</svg>
