<?xml version="1.0" encoding="UTF-8"?> <svg xmlns="http://www.w3.org/2000/svg" width="22" height="22" viewBox="0 0 22 22" fill="none"><path d="M15.5197 16.7938C16.6168 16.7887 17.6586 16.5517 18.6601 16.108C18.8061 16.0425 19.0124 16.0223 19.1584 16.0727C19.4453 16.1736 19.4855 16.5265 19.2691 16.8089C18.5897 17.6863 17.8197 18.478 16.9188 19.1335C14.8402 20.6463 12.5201 21.206 9.97351 20.9337C4.73939 20.3689 1.92605 16.3047 1.23152 13.0371C0.577256 9.95615 1.32714 7.18277 3.25974 4.75733C5.34333 2.14027 8.1315 0.904856 11.4582 1.00571C16.2746 1.15194 19.5056 4.29342 20.7035 7.99462C21.0709 9.12918 21.1312 10.294 20.6884 11.4235C20.0542 13.0573 18.8363 13.9801 17.0949 14.1515C15.9626 14.2625 14.8604 14.086 13.8135 13.617C13.6324 13.5363 13.4562 13.4304 13.2952 13.3195C13.0335 13.1329 12.9932 12.8758 13.1844 12.6236C14.186 11.3126 13.9293 8.84176 11.4532 8.3123C10.0087 8.0047 8.58949 9.03337 8.32778 10.531C8.20196 11.247 8.29255 11.9328 8.60962 12.5883C9.78226 14.9936 11.7602 16.2744 14.342 16.6929C14.7345 16.7534 15.1271 16.7585 15.5197 16.7938ZM14.1457 12.7396C14.2413 12.78 14.3319 12.8253 14.4225 12.8606C15.1976 13.143 15.9978 13.2943 16.8282 13.2691C17.9052 13.2388 18.7608 12.78 19.405 11.9227C20.1297 10.9596 20.1951 9.86034 19.9536 8.73082C19.6315 7.2332 18.8866 5.94736 17.8599 4.83297C15.726 2.51846 13.0486 1.61585 9.96848 1.98395C6.8431 2.3571 4.53808 4.01104 3.01314 6.76425C2.97287 6.83988 1.82355 8.90918 1.90911 8.87893C1.99467 8.84867 3.04333 6.92056 3.09366 6.87014C4.3334 5.24283 5.57483 5.18594 7.12997 5.12039C9.33938 5.02962 11.2418 5.80617 12.8623 7.29875C13.6223 7.99966 14.1658 8.8468 14.4628 9.84017C14.7597 10.8386 14.6993 11.8118 14.1457 12.7396ZM10.6972 20.3933C11.0002 20.3933 8.87894 19.7872 8.26739 19.4915C5.74755 18.2731 5.17724 15.4273 5.72582 12.6337C6.06805 10.9041 7.06455 9.55779 8.38314 8.42323C8.98708 7.90385 9.64638 7.51054 10.4416 7.40464C10.7586 7.35926 11.0807 7.36935 11.433 7.35422C11.3827 7.31388 11.3575 7.28867 11.3223 7.26345C10.6529 6.80459 9.93325 6.45665 9.15316 6.24991C7.64332 5.84651 6.16871 5.90198 4.77965 6.69365C3.41576 7.4702 2.59038 8.70561 1.97638 10.1074C1.95625 10.1528 1.94618 10.2032 1.94618 10.2537C1.94618 10.7983 1.90088 11.3479 1.96631 11.8824C2.33371 14.7364 3.73283 16.9703 6.06805 18.6192C7.60268 19.8949 9.82648 20.1865 10.6972 20.3933ZM7.32625 11C6.84813 11.7715 6.5512 12.6035 6.48074 13.5061C6.28949 15.9719 7.65842 18.362 9.88795 19.4361C10.8844 19.9151 11.9262 20.142 13.0284 19.8949C14.196 19.6327 15.258 19.1335 16.2192 18.4276C16.5917 18.1502 17.9107 17.3526 18.2731 17.0602C18.4833 16.8905 17.2107 17.5098 17.1805 17.5149C14.6366 18.2722 12.6862 17.5754 10.7184 16.2895C8.82603 15.0491 7.52253 13.3851 7.32625 11Z" fill="white" stroke="white" stroke-width="0.2"></path></svg> 