<?xml version="1.0" encoding="UTF-8"?> <svg xmlns="http://www.w3.org/2000/svg" width="21" height="22" viewBox="0 0 21 22" fill="none"><path d="M12.479 8.30819C13.2652 8.1659 13.9663 8.39514 14.6325 8.7904C14.648 8.77459 14.6635 8.75878 14.679 8.73901C14.4233 8.42281 14.1909 8.08685 13.9082 7.79832C12.4906 6.36355 10.5075 5.98411 8.66386 6.77857C8.46245 6.86552 8.33463 6.8339 8.26879 6.68766C8.20294 6.53747 8.26879 6.41889 8.46632 6.32798C8.97371 6.09478 9.50822 5.94459 10.0621 5.89716C10.2015 5.8853 10.2635 5.84578 10.2984 5.68768C10.7012 3.79442 11.6269 2.24504 13.2265 1.1502C13.2923 1.10672 13.3582 1.06719 13.424 1.02372C13.4395 1.01581 13.4589 1.01186 13.4938 1C13.5635 1.16601 13.6254 1.33596 13.7107 1.49011C14.2142 2.40709 14.8533 3.21341 15.5117 4.00786C16.1314 4.75488 16.7627 5.494 17.336 6.28055C17.7194 6.81019 18.0061 7.41097 18.343 7.99199C18.2927 7.7667 18.2462 7.53745 18.1881 7.31611C18.1261 7.08686 18.0603 6.86157 17.9828 6.64023C17.9053 6.41099 17.8201 6.18174 17.7311 5.9604C17.642 5.74301 17.5413 5.52958 17.4754 5.28057C17.6342 5.411 17.8046 5.52958 17.9518 5.67582C18.7846 6.49399 19.3423 7.49002 19.6251 8.62439C20.6011 12.5571 19.687 15.9484 16.7008 18.6638C14.9075 20.2961 12.7501 21.0906 10.3487 20.9918C6.35542 20.8297 3.46213 18.8574 1.82376 15.146C0.564962 12.2923 0.766369 9.43465 2.30791 6.71138C2.81143 5.82206 3.49311 5.07504 4.30649 4.4624C4.41494 4.38335 4.53113 4.31616 4.67057 4.22525C4.71705 5.06318 4.62796 5.88925 5.01529 6.67185C5.54592 6.07502 6.09591 5.56515 6.74274 5.16594C6.91316 5.06318 7.09133 4.97227 7.30048 4.8537C7.2695 5.05527 7.23851 5.21733 7.21527 5.38333C7.13781 5.95645 7.16492 6.52561 7.30823 7.08291C7.3276 7.16196 7.39344 7.23706 7.45154 7.3003C7.54062 7.39516 7.65682 7.46235 7.74203 7.56117C8.36949 8.27657 9.15963 8.75087 10.0001 9.15403C10.186 9.24098 10.3642 9.34375 10.5966 9.46628C10.4068 9.69157 10.248 9.8971 10.0698 10.0789C9.78321 10.3793 9.45786 10.5453 9.01244 10.5493C8.26879 10.5572 7.55999 10.7587 6.95577 11.237C6.92866 11.2568 6.90542 11.2765 6.88218 11.3002C6.27021 11.8378 6.16563 12.2212 6.42514 12.9998C7.01387 14.7508 8.8304 15.9444 10.6702 15.8101C11.7159 15.731 12.6455 15.399 13.3853 14.6085C15.0314 12.8496 14.8029 9.63623 12.5487 8.36352C12.5332 8.33981 12.5061 8.324 12.479 8.30819Z" stroke="white" stroke-width="0.7" stroke-linejoin="round"></path></svg> 