<?xml version="1.0" encoding="UTF-8"?> <svg xmlns="http://www.w3.org/2000/svg" width="28" height="28" viewBox="0 0 28 28" fill="none"><path d="M21.7558 5.76979C21.5234 5.5496 21.2146 5.42814 20.8945 5.43098H18.748C17.9786 5.38532 17.5566 6.22654 17.1625 6.74392C17.0663 6.87714 16.9818 7.01843 16.91 7.16622H11.1171C11.0781 7.07999 11.0346 6.99578 10.9871 6.91393L10.4522 6.02825C10.3417 5.84641 10.1863 5.69598 10.001 5.5914C9.81569 5.48681 9.60662 5.43157 9.39384 5.43096H6.9658C6.7088 5.42924 6.4579 5.50921 6.24931 5.65934C5.22095 6.40168 1.85809 9.63722 1.75 20.1024C1.76432 20.4602 1.85924 20.8102 2.0277 21.1263C2.19615 21.4423 2.43379 21.7162 2.72288 21.9276C2.97373 22.1735 3.2773 22.3591 3.61057 22.4703C3.94384 22.5814 4.29804 22.6152 4.64631 22.5691C4.92888 22.5688 5.20832 22.5099 5.46691 22.3959C5.72549 22.282 5.9576 22.1156 6.1485 21.9073L9.11956 18.6581C9.24264 18.5238 9.39229 18.4165 9.55903 18.343C9.72576 18.2696 9.90594 18.2316 10.0881 18.2315H17.8097C17.9914 18.2317 18.1711 18.2695 18.3374 18.3425C18.5038 18.4156 18.6532 18.5223 18.7762 18.656L21.7673 21.9111C22.1597 22.3012 22.6787 22.5379 23.2304 22.5783C23.7822 22.6188 24.3301 22.4603 24.7752 22.1316L25.475 21.5796C25.7251 21.382 25.9254 21.1285 26.0598 20.8395C26.1942 20.5504 26.2589 20.2339 26.2487 19.9153C26.1419 16.8545 25.4899 9.34861 21.7558 5.76979ZM16.6462 8.04124C16.562 8.38478 16.7755 8.98198 16.2554 9.01323H11.757C11.2394 8.98511 11.4467 8.38153 11.3725 8.04124H16.6462ZM24.9332 20.8926L24.2334 21.4448C23.9541 21.6473 23.6085 21.7364 23.2661 21.6941C23.1055 21.6938 22.9467 21.6604 22.7996 21.5958C22.6525 21.5312 22.5204 21.4369 22.4116 21.3188L19.4205 18.064C19.2154 17.8412 18.9665 17.6632 18.6892 17.5415C18.412 17.4197 18.1125 17.3567 17.8097 17.3565H10.0881C9.78444 17.3568 9.48412 17.4201 9.20619 17.5426C8.92826 17.665 8.67879 17.8438 8.47357 18.0676L5.50251 21.3168C5.39371 21.4356 5.26142 21.5305 5.11404 21.5954C4.96665 21.6603 4.80738 21.694 4.64632 21.6941C4.41284 21.7353 4.17299 21.7215 3.94578 21.6538C3.71856 21.5862 3.51021 21.4665 3.33725 21.3044C3.01207 20.9899 2.58385 20.6096 2.62506 20.1111C2.83805 9.6223 5.93502 6.83786 6.96568 6.30585L9.39386 6.30598C9.45604 6.30623 9.51711 6.3224 9.57125 6.35296C9.6254 6.38351 9.67082 6.42742 9.70318 6.48051L10.2385 7.36662C10.4619 7.75601 10.5604 8.20462 10.5205 8.65178C10.5208 8.9796 10.6512 9.2939 10.883 9.52571C11.1148 9.75751 11.4291 9.88789 11.757 9.88823H16.2554C16.5833 9.88789 16.8976 9.75751 17.1294 9.52571C17.3612 9.2939 17.4915 8.9796 17.4919 8.65178C17.4486 8.1578 17.5823 7.66452 17.8692 7.26003L18.4579 6.45424C18.4909 6.40821 18.5345 6.37074 18.585 6.34495C18.6354 6.31917 18.6913 6.3058 18.748 6.30598H20.8945C20.9887 6.30408 21.0802 6.33832 21.15 6.40168C24.7512 9.85255 25.2938 17.6411 25.3746 19.9458C25.3801 20.1271 25.3431 20.3072 25.2664 20.4717C25.1898 20.6361 25.0757 20.7802 24.9332 20.8926Z" fill="white"></path><path d="M9.16592 11.073H8.76771V10.6748C8.76307 10.3153 8.61698 9.97205 8.36108 9.71944C8.10518 9.46683 7.76008 9.32519 7.4005 9.3252C7.04093 9.3252 6.69582 9.46685 6.43994 9.71947C6.18405 9.97209 6.03797 10.3153 6.03334 10.6749V11.073C3.6844 10.827 3.6827 14.0572 6.03334 13.8117V14.2099C6.03798 14.5694 6.18407 14.9127 6.43997 15.1653C6.69586 15.4179 7.04097 15.5595 7.40054 15.5595C7.76012 15.5595 8.10522 15.4179 8.36111 15.1652C8.617 14.9126 8.76308 14.5694 8.76771 14.2098V13.8117H9.1659C9.52646 13.8077 9.8709 13.6617 10.1245 13.4053C10.378 13.149 10.5202 12.8029 10.5202 12.4424C10.5202 12.0818 10.378 11.7358 10.1245 11.4794C9.87091 11.223 9.52648 11.077 9.16592 11.073ZM9.52096 12.7899C9.3299 13.0325 8.61965 12.9087 8.33022 12.9367C8.27277 12.9367 8.21587 12.948 8.16278 12.97C8.10969 12.9919 8.06146 13.0242 8.02083 13.0648C7.9802 13.1054 7.94797 13.1537 7.92599 13.2067C7.90401 13.2598 7.89271 13.3167 7.89272 13.3742V14.2099C7.89023 14.3388 7.83728 14.4615 7.74525 14.5518C7.65322 14.6421 7.52945 14.6927 7.40054 14.6927C7.27162 14.6927 7.14785 14.6421 7.05582 14.5518C6.96379 14.4615 6.91084 14.3388 6.90835 14.2099V13.3742C6.90836 13.3167 6.89706 13.2598 6.87508 13.2067C6.8531 13.1536 6.82087 13.1054 6.78024 13.0648C6.73961 13.0242 6.69138 12.9919 6.63829 12.9699C6.5852 12.948 6.52831 12.9367 6.47085 12.9367H5.63516C5.5053 12.9348 5.38141 12.8819 5.29025 12.7894C5.1991 12.6969 5.148 12.5722 5.148 12.4423C5.148 12.3125 5.19911 12.1878 5.29027 12.0953C5.38143 12.0028 5.50533 11.9499 5.63518 11.948H6.47084C6.52829 11.948 6.58519 11.9367 6.63828 11.9148C6.69136 11.8928 6.7396 11.8606 6.78023 11.8199C6.82086 11.7793 6.85308 11.7311 6.87506 11.678C6.89704 11.6249 6.90835 11.568 6.90834 11.5105V10.6748C6.90834 10.5443 6.96019 10.4191 7.05249 10.3268C7.1448 10.2345 7.26999 10.1827 7.40052 10.1827C7.53106 10.1827 7.65625 10.2345 7.74855 10.3268C7.84086 10.4191 7.89271 10.5443 7.89271 10.6748V11.5105C7.8927 11.568 7.904 11.6249 7.92598 11.678C7.94796 11.7311 7.98019 11.7793 8.02082 11.8199C8.06145 11.8605 8.10968 11.8928 8.16277 11.9148C8.21586 11.9367 8.27275 11.948 8.33021 11.948H9.16592C9.26263 11.9498 9.35673 11.9797 9.43682 12.0339C9.51691 12.0881 9.57954 12.1644 9.61712 12.2536C9.65471 12.3427 9.66563 12.4408 9.64856 12.536C9.63149 12.6312 9.58717 12.7194 9.52096 12.7899Z" fill="white"></path><path d="M19.973 9.67285C19.576 9.67719 19.1968 9.83792 18.9177 10.1202C18.6385 10.4024 18.4819 10.7833 18.4819 11.1803C18.4819 11.5773 18.6385 11.9582 18.9177 12.2404C19.1969 12.5227 19.5761 12.6834 19.973 12.6877C20.37 12.6834 20.7492 12.5226 21.0284 12.2404C21.3075 11.9582 21.4641 11.5772 21.4641 11.1803C21.4641 10.7833 21.3075 10.4023 21.0283 10.1201C20.7492 9.83789 20.3699 9.67718 19.973 9.67285ZM19.973 11.8127C19.8068 11.8104 19.6482 11.7427 19.5316 11.6243C19.4149 11.506 19.3495 11.3465 19.3495 11.1803C19.3495 11.0141 19.4149 10.8546 19.5316 10.7362C19.6483 10.6179 19.8068 10.5502 19.973 10.5479C20.1392 10.5502 20.2978 10.6179 20.4145 10.7362C20.5311 10.8546 20.5965 11.0141 20.5965 11.1803C20.5965 11.3465 20.5311 11.506 20.4144 11.6244C20.2977 11.7427 20.1392 11.8104 19.973 11.8127Z" fill="white"></path><path d="M17.3996 12.1953C17.0026 12.1996 16.6233 12.3603 16.344 12.6426C16.0648 12.9248 15.9082 13.3058 15.9082 13.7029C15.9082 14.0999 16.0648 14.4809 16.3441 14.7632C16.6233 15.0454 17.0026 15.2061 17.3996 15.2104C17.7966 15.2061 18.1759 15.0454 18.4551 14.7631C18.7344 14.4809 18.891 14.0999 18.891 13.7028C18.891 13.3058 18.7343 12.9248 18.4551 12.6425C18.1759 12.3603 17.7966 12.1996 17.3996 12.1953ZM17.3996 14.3354C17.2333 14.3331 17.0747 14.2654 16.958 14.147C16.8412 14.0287 16.7758 13.8691 16.7758 13.7028C16.7758 13.5366 16.8412 13.377 16.958 13.2586C17.0747 13.1403 17.2334 13.0726 17.3996 13.0703C17.5658 13.0726 17.7245 13.1403 17.8412 13.2587C17.9579 13.377 18.0234 13.5366 18.0234 13.7029C18.0234 13.8691 17.9579 14.0287 17.8412 14.1471C17.7244 14.2654 17.5658 14.3331 17.3996 14.3354Z" fill="white"></path><path d="M20.0791 14.487C20.0834 14.884 20.2441 15.2633 20.5264 15.5425C20.8086 15.8218 21.1896 15.9784 21.5867 15.9784C21.9837 15.9784 22.3647 15.8217 22.6469 15.5425C22.9292 15.2633 23.0899 14.884 23.0942 14.487C23.0899 14.09 22.9292 13.7107 22.6469 13.4314C22.3647 13.1522 21.9836 12.9956 21.5866 12.9956C21.1896 12.9956 20.8086 13.1522 20.5263 13.4315C20.2441 13.7107 20.0834 14.09 20.0791 14.487ZM21.5864 13.8545C21.7527 13.8568 21.9113 13.9245 22.028 14.0428C22.1448 14.1612 22.2102 14.3208 22.2102 14.487C22.2102 14.6533 22.1448 14.8128 22.028 14.9312C21.9113 15.0496 21.7526 15.1172 21.5864 15.1195C21.4202 15.1172 21.2616 15.0495 21.1449 14.9311C21.0282 14.8128 20.9628 14.6532 20.9628 14.487C20.9628 14.3208 21.0282 14.1612 21.1449 14.0429C21.2616 13.9245 21.4202 13.8568 21.5864 13.8545V13.8545Z" fill="white"></path><path d="M12.6108 15.7979H11.6128C11.4968 15.7979 11.3855 15.8439 11.3034 15.926C11.2214 16.008 11.1753 16.1193 11.1753 16.2354C11.1753 16.3514 11.2214 16.4627 11.3034 16.5447C11.3855 16.6268 11.4968 16.6729 11.6128 16.6729H12.6108C12.7254 16.6706 12.8345 16.6235 12.9147 16.5417C12.995 16.4599 13.0399 16.3499 13.0399 16.2353C13.0399 16.1208 12.9949 16.0108 12.9147 15.929C12.8345 15.8472 12.7254 15.8001 12.6108 15.7979Z" fill="white"></path><path d="M16.3877 15.7979H15.3896C15.2736 15.7979 15.1623 15.8439 15.0803 15.926C14.9982 16.008 14.9521 16.1193 14.9521 16.2354C14.9521 16.3514 14.9982 16.4627 15.0803 16.5447C15.1623 16.6268 15.2736 16.6729 15.3896 16.6729H16.3877C16.5022 16.6706 16.6113 16.6235 16.6916 16.5417C16.7718 16.4599 16.8167 16.3499 16.8167 16.2354C16.8167 16.1208 16.7718 16.0108 16.6916 15.929C16.6113 15.8472 16.5022 15.8001 16.3877 15.7979Z" fill="white"></path></svg> 