<?xml version="1.0" encoding="UTF-8"?> <svg xmlns="http://www.w3.org/2000/svg" width="26" height="26" viewBox="0 0 26 26" fill="none"><path d="M21.1736 1.97217H4.82849C2.6583 1.97217 0.893555 3.73773 0.893555 5.90792V17.2C0.893555 19.3702 2.65912 21.1358 4.8293 21.1358H9.32974L11.6356 23.4701C11.9915 23.83 12.4652 24.0291 12.9722 24.0291H12.973C13.4792 24.0291 13.9545 23.8309 14.3104 23.4701L16.6162 21.1358H21.1711C23.3413 21.1358 25.1069 19.3702 25.1069 17.2V5.90467C25.1061 3.73611 23.3421 1.97217 21.1736 1.97217ZM23.6436 17.2C23.6436 18.5634 22.5345 19.6733 21.1711 19.6733H16.3107C16.1157 19.6733 15.9281 19.7513 15.7899 19.891L13.2696 22.4423C13.1899 22.5227 13.0843 22.5666 12.9722 22.5666C12.8601 22.5666 12.7544 22.5227 12.6764 22.4431L10.1552 19.8919C10.0171 19.7529 9.83024 19.6741 9.63443 19.6741H4.82849C3.46512 19.6741 2.35605 18.5642 2.35605 17.2009V5.90792C2.35605 4.54454 3.46512 3.43548 4.82849 3.43548H21.1736C22.5361 3.43548 23.6436 4.54373 23.6436 5.90548V17.2Z" fill="white"></path><path d="M12.9998 9.62842C12.596 9.62842 12.2686 9.95586 12.2686 10.3597V15.2623C12.2686 15.6661 12.596 15.9935 12.9998 15.9935C13.4036 15.9935 13.7311 15.6661 13.7311 15.2623V10.3597C13.7311 9.95586 13.4036 9.62842 12.9998 9.62842Z" fill="white"></path><path d="M12.7146 8.52357C12.8121 8.55607 12.9015 8.58044 12.9998 8.58044C13.1948 8.58044 13.3817 8.49919 13.5198 8.36107C13.6498 8.23107 13.7311 8.03607 13.7311 7.84919C13.7311 7.65419 13.6498 7.46732 13.5198 7.32919C13.3086 7.12607 12.9836 7.06107 12.7154 7.17482C12.6269 7.20732 12.5537 7.26419 12.4798 7.32919C12.4148 7.39419 12.3579 7.47544 12.3254 7.56482C12.2848 7.65419 12.2686 7.75169 12.2686 7.84919C12.2686 8.03607 12.3506 8.22294 12.4798 8.36107C12.5529 8.43419 12.6261 8.48294 12.7146 8.52357Z" fill="white"></path></svg> 