<?xml version="1.0" encoding="UTF-8"?> <svg xmlns="http://www.w3.org/2000/svg" width="22" height="22" viewBox="0 0 22 22" fill="none"><path d="M21.3555 11.6445H19.4219V9.71094C19.4219 9.35498 19.1333 9.06641 18.7773 9.06641H16.1992C15.8433 9.06641 15.5547 9.35498 15.5547 9.71094V11.6445H14.1797V5.84375C14.1797 5.4878 13.8911 5.19922 13.5352 5.19922H11.6016V3.26562C11.6016 2.90967 11.313 2.62109 10.957 2.62109H8.37891C8.02295 2.62109 7.73438 2.90967 7.73438 3.26562V5.19922H6.44531V3.26562C6.44531 2.90967 6.15673 2.62109 5.80078 2.62109H3.22266C2.8667 2.62109 2.57812 2.90967 2.57812 3.26562V5.19922H0.644531C0.288578 5.19922 0 5.4878 0 5.84375V18.7344C0 19.0903 0.288578 19.3789 0.644531 19.3789H21.3555C21.7114 19.3789 22 19.0903 22 18.7344V12.2891C22 11.9331 21.7114 11.6445 21.3555 11.6445ZM16.8438 10.3555H18.1328V11.6445H16.8438V10.3555ZM9.02344 3.91016H10.3125V5.19922H9.02344V3.91016ZM3.86719 3.91016H5.15625V5.19922H3.86719V3.91016ZM12.8906 6.48828V11.6445H1.28906V6.48828H12.8906ZM20.7109 18.0898H1.28906V12.9336H20.7109V18.0898Z" fill="white"></path></svg> 