<?xml version="1.0" encoding="UTF-8"?> <svg xmlns="http://www.w3.org/2000/svg" width="22" height="22" viewBox="0 0 22 22" fill="none"><path d="M0.952917 3.4848L0.65 3.52592V3.83161L0.65 3.83171L0.65 3.83209L0.657396 10.6284L0.657779 10.98L1.00938 10.978L9.17867 10.9316L9.52683 10.9297L9.52669 10.5815L9.52343 2.72187L9.52326 2.32131L9.12634 2.37519L0.952917 3.4848ZM9.51924 11.4868L9.51896 11.1394L9.1715 11.1371L1.00812 11.0844L0.655835 11.0822L0.655859 11.4345L0.656324 18.234L0.656345 18.5393L0.958805 18.5808L9.12824 19.7003L9.52609 19.7548L9.52576 19.3533L9.51924 11.4868ZM10.1096 2.23042L9.81002 2.27401V2.57677V2.57682V10.5673V10.9201L10.1628 10.9173L21 10.8316L21.3472 10.8289V10.4816V1V0.595391L20.9468 0.653647L10.1096 2.23042ZM21.35 11.5612L21.3501 11.2117L21.0006 11.2111L10.1457 11.1934L9.79448 11.1929L9.79514 11.5441L9.81002 19.4757L9.81059 19.7793L10.1113 19.8216L20.9484 21.3466L21.3471 21.4027L21.3472 21.0001L21.35 11.5612Z" stroke="white" stroke-width="0.7"></path></svg> 