<?xml version="1.0" encoding="UTF-8"?> <svg xmlns="http://www.w3.org/2000/svg" width="64" height="64" viewBox="0 0 64 64" fill="none"><path d="M55 9H9C7.67392 9 6.40215 9.52678 5.46447 10.4645C4.52678 11.4021 4 12.6739 4 14V54C4 55.3261 4.52678 56.5979 5.46447 57.5355C6.40215 58.4732 7.67392 59 9 59H55C56.3261 59 57.5979 58.4732 58.5355 57.5355C59.4732 56.5979 60 55.3261 60 54V14C60 12.6739 59.4732 11.4021 58.5355 10.4645C57.5979 9.52678 56.3261 9 55 9ZM9 11H55C55.7957 11 56.5587 11.3161 57.1213 11.8787C57.6839 12.4413 58 13.2044 58 14V21H6V14C6 13.2044 6.31607 12.4413 6.87868 11.8787C7.44129 11.3161 8.20435 11 9 11ZM55 57H9C8.20435 57 7.44129 56.6839 6.87868 56.1213C6.31607 55.5587 6 54.7957 6 54V23H58V54C58 54.7957 57.6839 55.5587 57.1213 56.1213C56.5587 56.6839 55.7957 57 55 57ZM51 18C51.3956 18 51.7822 17.8827 52.1111 17.6629C52.44 17.4432 52.6964 17.1308 52.8478 16.7654C52.9991 16.3999 53.0387 15.9978 52.9616 15.6098C52.8844 15.2219 52.6939 14.8655 52.4142 14.5858C52.1345 14.3061 51.7781 14.1156 51.3902 14.0384C51.0022 13.9613 50.6001 14.0009 50.2346 14.1522C49.8692 14.3036 49.5568 14.56 49.3371 14.8889C49.1173 15.2178 49 15.6044 49 16C49 16.5304 49.2107 17.0391 49.5858 17.4142C49.9609 17.7893 50.4696 18 51 18ZM43 18C43.3956 18 43.7822 17.8827 44.1111 17.6629C44.44 17.4432 44.6964 17.1308 44.8478 16.7654C44.9991 16.3999 45.0387 15.9978 44.9616 15.6098C44.8844 15.2219 44.6939 14.8655 44.4142 14.5858C44.1345 14.3061 43.7781 14.1156 43.3902 14.0384C43.0022 13.9613 42.6001 14.0009 42.2346 14.1522C41.8692 14.3036 41.5568 14.56 41.3371 14.8889C41.1173 15.2178 41 15.6044 41 16C41 16.5304 41.2107 17.0391 41.5858 17.4142C41.9609 17.7893 42.4696 18 43 18Z" fill="white"></path><path d="M40.4665 35.2384V32.9697C40.4665 28.5756 37.1168 25 32.9998 25C28.8829 25 25.5332 27.5756 25.5332 31.9697C25.5332 32.4849 25.9504 32.9031 26.4665 32.9031C26.9826 32.9031 27.3998 32.4849 27.3998 31.9697C27.3998 28.6041 29.9114 26.8667 32.9998 26.8667C36.0882 26.8667 38.5998 29.6041 38.5998 32.9697V35.0667H26.4665C24.9228 35.0667 23.6665 36.3229 23.6665 37.8667V47.2C23.6665 48.7437 24.9228 50 26.4665 50H39.5332C41.0769 50 42.3332 48.7437 42.3332 47.2V37.8667C42.3332 36.6515 41.5501 35.6248 40.4665 35.2384ZM40.4665 47.2C40.4665 47.7143 40.0484 48.1333 39.5332 48.1333H26.4665C25.9513 48.1333 25.5332 47.7143 25.5332 47.2V37.8667C25.5332 37.3524 25.9513 36.9333 26.4665 36.9333H39.5332C40.0484 36.9333 40.4665 37.3524 40.4665 37.8667V47.2Z" fill="#FF0066"></path><path d="M33 39.7333C31.9705 39.7333 31.1333 40.5705 31.1333 41.5999C31.1333 42.2878 31.5113 42.8833 32.0666 43.2071V45.3333C32.0666 45.8485 32.4838 46.2666 33 46.2666C33.5161 46.2666 33.9333 45.8485 33.9333 45.3333V43.2071C34.4886 42.8833 34.8666 42.2878 34.8666 41.5999C34.8666 40.5705 34.0294 39.7333 33 39.7333Z" fill="#FF0066"></path></svg> 